<svg id="Camada_1" data-name="Camada 1" xmlns="http://www.w3.org/2000/svg" viewBox="0 0 495 72"><defs><style>.cls-1{fill:#415f82;}.cls-2{fill:#ee7064;fill-rule:evenodd;}</style></defs><path class="cls-1" d="M125.68,72V65.35a25,25,0,0,1-5.63,4.4A17.78,17.78,0,0,1,110.67,72a20.25,20.25,0,0,1-10.51-3,23.11,23.11,0,0,1-8.31-8.85A28.39,28.39,0,0,1,88.57,46a29.18,29.18,0,0,1,1.72-10.4,25.07,25.07,0,0,1,4.29-7.51A23.31,23.31,0,0,1,101,22.72a29.87,29.87,0,0,1,7-2.9,23.41,23.41,0,0,1,5.9-.91,38.68,38.68,0,0,1,5.2.27,19.24,19.24,0,0,1,3.32.75q1.45.48,3.27,1.23V.35h12.55V72Zm0-24V32.53q-3.32-2.69-10.4-2.68a12.17,12.17,0,0,0-6.17,1.45,14.58,14.58,0,0,0-4.34,3.8A17.52,17.52,0,0,0,101.34,46a17.36,17.36,0,0,0,3.22,10.73q3.21,4.29,9.33,4.29a10.93,10.93,0,0,0,7-2,11.44,11.44,0,0,0,3.7-5.09A17.18,17.18,0,0,0,125.68,48Z"/><path class="cls-1" d="M165.09,72,143.75,20h14.58l13.52,36,13.51-36H199.2L178,72Z"/><path class="cls-1" d="M234.69,71.89l-.32-6.33a17.27,17.27,0,0,1-6.28,4.4,22.06,22.06,0,0,1-9.28,1.93,20.52,20.52,0,0,1-8.09-1.71,15.57,15.57,0,0,1-6.65-5.37,15.31,15.31,0,0,1-2.63-9.22q0-8.58,6.11-13.3t16-4.72c1.22,0,2.67,0,4.35.11s3.84.18,6.49.32V36.82a6.87,6.87,0,0,0-3-5.9,13.16,13.16,0,0,0-7.83-2.14A22,22,0,0,0,215,30.17a38.49,38.49,0,0,0-5.68,3l-5.79-8.58a36.42,36.42,0,0,1,4.82-2.95,30.07,30.07,0,0,1,6.87-2.41,44.65,44.65,0,0,1,10.08-1q9.65,0,15.44,5.1a16.68,16.68,0,0,1,5.8,13.14V71.89Zm-.32-19.41V47.55c-1.65-.15-3.44-.25-5.37-.33s-3.39-.1-4.39-.1q-6.12,0-8.58,2.41a7.51,7.51,0,0,0-2.47,5.52,6.07,6.07,0,0,0,2.3,5q2.31,1.83,6.82,1.83a12.64,12.64,0,0,0,5.63-1.29,12.51,12.51,0,0,0,4.34-3.43A7.4,7.4,0,0,0,234.37,52.48Z"/><path class="cls-1" d="M257.25,72V20h12.13l.32,5.69a26.66,26.66,0,0,1,5.57-4.46,17.72,17.72,0,0,1,9.55-2.3q9.33,0,14.32,5.63t5,15.18V72H291.47V39.82a10.14,10.14,0,0,0-2.63-7.4A9.14,9.14,0,0,0,282,29.74a11.14,11.14,0,0,0-8.69,3.86A13.7,13.7,0,0,0,269.91,43V72Z"/><path class="cls-1" d="M351.59,55.48l7.5,8.15a26.77,26.77,0,0,1-8.42,6,26.48,26.48,0,0,1-11.2,2.25,29.51,29.51,0,0,1-14.64-3.38,22.49,22.49,0,0,1-9.23-9.43,29.82,29.82,0,0,1-3.16-14,26.93,26.93,0,0,1,3.43-13.41,26.21,26.21,0,0,1,9.49-9.76,26.84,26.84,0,0,1,14.11-3.65,27.7,27.7,0,0,1,11.15,2.2,25.8,25.8,0,0,1,8.58,6l-8,8.15a14.34,14.34,0,0,0-5-3.86,15.5,15.5,0,0,0-6.7-1.4,13.43,13.43,0,0,0-8,2.25,13.78,13.78,0,0,0-4.72,5.85,19.06,19.06,0,0,0-1.56,7.67,18.66,18.66,0,0,0,1.56,7.4,14.42,14.42,0,0,0,4.72,6,13,13,0,0,0,8,2.35,16.48,16.48,0,0,0,6.91-1.44A14.43,14.43,0,0,0,351.59,55.48Z"/><path class="cls-1" d="M404.77,55.27,411.64,63l-1.77,1.77a22.48,22.48,0,0,1-4.19,3.11,28.9,28.9,0,0,1-7,2.9A36.6,36.6,0,0,1,388.58,72a27.14,27.14,0,0,1-14-3.49,24.28,24.28,0,0,1-9.28-9.7A29.88,29.88,0,0,1,362,44.54a27.27,27.27,0,0,1,3.27-13.35,24.77,24.77,0,0,1,9-9.44,27.79,27.79,0,0,1,24.94-1,21.13,21.13,0,0,1,7.61,6.6A27.46,27.46,0,0,1,411,36.61a43,43,0,0,1,1.29,10.51v1.82H374.74a10.23,10.23,0,0,0,2.09,6.38,14.59,14.59,0,0,0,5.31,4.29,14.88,14.88,0,0,0,6.54,1.56A25.11,25.11,0,0,0,396.84,60,20.16,20.16,0,0,0,402,57.52,24.29,24.29,0,0,0,404.77,55.27ZM374.63,39.82H399.3A10.67,10.67,0,0,0,398,34.73a11.16,11.16,0,0,0-3.91-4.18,11.85,11.85,0,0,0-6.54-1.67,13.7,13.7,0,0,0-7,1.67,11.8,11.8,0,0,0-4.34,4.18A9.79,9.79,0,0,0,374.63,39.82Z"/><path class="cls-1" d="M455.45,72V65.35a25.21,25.21,0,0,1-5.63,4.4A17.84,17.84,0,0,1,440.43,72a20.28,20.28,0,0,1-10.51-3,23.11,23.11,0,0,1-8.31-8.85A28.5,28.5,0,0,1,418.34,46a29,29,0,0,1,1.72-10.4,25.07,25.07,0,0,1,4.29-7.51,23.27,23.27,0,0,1,6.43-5.41,29.87,29.87,0,0,1,7-2.9,23.47,23.47,0,0,1,5.9-.91,38.85,38.85,0,0,1,5.21.27,19.68,19.68,0,0,1,3.32.75c1,.32,2.05.73,3.27,1.23V.35H468V72Zm0-24V32.53q-3.33-2.69-10.4-2.68a12.17,12.17,0,0,0-6.17,1.45,14.58,14.58,0,0,0-4.34,3.8A17.53,17.53,0,0,0,431.1,46a17.42,17.42,0,0,0,3.22,10.73q3.23,4.29,9.33,4.29a10.91,10.91,0,0,0,7-2,11.46,11.46,0,0,0,3.71-5.09A17.18,17.18,0,0,0,455.45,48Z"/><path class="cls-2" d="M22.58,20a66.76,66.76,0,0,1,5.27,27.31A67.41,67.41,0,0,1,22.5,72L68.36,20Z"/><path class="cls-1" d="M22.78,46,0,72H22.5A68.34,68.34,0,0,0,24,59.94,67,67,0,0,0,22.78,46Z"/><polygon class="cls-1" points="81 0 68.36 0 63 0 45.52 19.98 68.36 19.98 68.36 41.36 62.75 41.36 52.15 54 68.36 54 68.36 72 81 72 81 0 81 0"/><path class="cls-1" d="M486,17.8a9.46,9.46,0,0,1-4.62-1.12,8.26,8.26,0,0,1-3.22-3.12A9.11,9.11,0,0,1,477,8.92a9.18,9.18,0,0,1,1.16-4.68,8.26,8.26,0,0,1,3.22-3.12,10.13,10.13,0,0,1,9.26,0,8.34,8.34,0,0,1,3.2,3.12A9.18,9.18,0,0,1,495,8.92a9.11,9.11,0,0,1-1.16,4.64,8.34,8.34,0,0,1-3.2,3.12A9.43,9.43,0,0,1,486,17.8Zm0-2.17a6.67,6.67,0,0,0,3.41-.85,6,6,0,0,0,2.33-2.37,7,7,0,0,0,.85-3.49A6.64,6.64,0,0,0,490.76,4,6.4,6.4,0,0,0,486,2.17a6.69,6.69,0,0,0-3.39.85,6,6,0,0,0-2.35,2.37,7.07,7.07,0,0,0-.85,3.53,7,7,0,0,0,.85,3.49,5.89,5.89,0,0,0,2.35,2.37A6.69,6.69,0,0,0,486,15.63Zm-3.12-2.72V4.26h3.59a3.17,3.17,0,0,1,2.14.73,2.49,2.49,0,0,1,.82,2A2.83,2.83,0,0,1,489,8.59a2.77,2.77,0,0,1-1.16,1L490,12.91h-2.21l-1.9-3.12h-1.06v3.12Zm1.9-4.58h1.1a2.08,2.08,0,0,0,1.19-.3,1.18,1.18,0,0,0,.43-1,1.07,1.07,0,0,0-.36-.91,1.42,1.42,0,0,0-.9-.28h-1.46Z"/></svg>